<?xml version="1.0" encoding="UTF-8"?>
<svg version="1.1" xmlns="http://www.w3.org/2000/svg" width="413" height="604">
<path d="M0 0 C1.04223774 -0.00311998 2.08447547 -0.00623996 3.15829617 -0.00945449 C6.62016196 -0.01737597 10.0818496 -0.01113373 13.54371643 -0.00482178 C16.0381531 -0.00753425 18.53258896 -0.01109662 21.02702332 -0.01544189 C27.08086002 -0.02359499 33.13462787 -0.02242903 39.18846183 -0.01661661 C44.11229963 -0.01208627 49.03612355 -0.01149314 53.95996284 -0.01366425 C54.6627249 -0.01397071 55.36548695 -0.01427718 56.08954482 -0.01459293 C57.51753418 -0.01523243 58.94552353 -0.01588086 60.37351287 -0.01653811 C73.74172355 -0.02223156 87.10990672 -0.01569923 100.47811288 -0.00493738 C111.92821716 0.00399528 123.37828086 0.00244653 134.8283844 -0.0067749 C148.14962034 -0.01749836 161.47083222 -0.02168028 174.79207188 -0.01555037 C176.21489751 -0.01491333 177.63772314 -0.01428459 179.06054878 -0.01366425 C180.11042084 -0.01320142 180.11042084 -0.01320142 181.18150244 -0.01272924 C186.09422773 -0.01100837 191.00693766 -0.01390428 195.91966057 -0.01862335 C202.54270647 -0.02484593 209.16568798 -0.02036205 215.78873062 -0.00883484 C218.21382203 -0.0061992 220.63891991 -0.00693452 223.06400871 -0.01136017 C226.38520594 -0.01686051 229.70616172 -0.00992724 233.02734375 0 C233.97707815 -0.00446144 234.92681255 -0.00892289 235.90532678 -0.01351953 C257.78659789 0.11252955 275.55425724 8.03345511 291.0771637 23.25396729 C292.23731995 24.35998291 292.23731995 24.35998291 293.4209137 25.48834229 C312.81233422 45.27821666 313.2412055 71.51182374 313.20414734 97.49526978 C313.20530229 99.28228907 313.20689232 101.06930813 313.20887458 102.8563267 C313.21301655 107.72231404 313.21100061 112.58828156 313.20788836 117.45426893 C313.20561338 122.71954953 313.2091243 127.98482687 313.21186829 133.25010681 C313.21630277 143.54777316 313.2153598 153.84543219 313.21245565 164.14309882 C313.21019224 172.51737273 313.20989315 180.8916446 313.21097946 189.26591873 C313.21113269 190.4602853 313.21128593 191.65465186 313.2114438 192.88521136 C313.21176355 195.31198465 313.21208776 197.73875794 313.2124164 200.16553123 C313.21526445 222.89439258 313.21199487 245.62324989 313.20661603 268.35211058 C313.20214975 287.82721067 313.20292378 307.3023048 313.20753479 326.77740479 C313.21289444 349.42488091 313.21498862 372.07235349 313.21192253 394.71983016 C313.211604 397.13801487 313.21128963 399.55619959 313.21097946 401.97438431 C313.21082519 403.16399143 313.21067091 404.35359856 313.21051196 405.57925438 C313.20965089 413.93618241 313.21110086 422.29310818 313.21345901 430.65003586 C313.21627271 440.84491784 313.21548577 451.03979214 313.21017827 461.23467325 C313.20756222 466.42980226 313.2065004 471.62491848 313.20982742 476.82004738 C313.21283393 481.58704923 313.21112599 486.35402657 313.20584987 491.12102623 C313.20474408 492.83418101 313.20527533 494.54733791 313.20772566 496.2604913 C313.24746199 526.38205342 310.9474966 550.02859772 288.9521637 572.69146729 C268.13719134 592.64841788 243.56523925 593.40914794 216.21559143 593.38336182 C213.79820225 593.38471837 211.38081327 593.38649974 208.96342468 593.38867188 C203.10191976 593.39274486 197.24042662 593.39216743 191.37892204 593.38925923 C186.61194857 593.38699281 181.84497869 593.38669803 177.07800484 593.38778305 C176.05693624 593.3880129 176.05693624 593.3880129 175.01524 593.38824739 C173.63202245 593.38856715 172.24880491 593.38889136 170.86558736 593.38921998 C157.92279904 593.39206536 144.98001783 593.38880245 132.03723068 593.38341962 C120.95068461 593.37895143 109.86414902 593.37972947 98.77760315 593.38433838 C85.87681136 593.38969906 72.97602579 593.39179182 60.07523304 593.38872612 C58.69765763 593.38840759 57.32008221 593.38809322 55.94250679 593.38778305 C55.26485924 593.38762878 54.58721169 593.3874745 53.88902937 593.38731555 C49.13161942 593.38645495 44.37421345 593.38790338 39.61680412 593.3902626 C33.2055252 593.39337237 26.79426134 593.39113437 20.38298416 593.38536835 C18.03487366 593.38404993 15.68676149 593.38441922 13.33865166 593.38663101 C10.12450864 593.38937866 6.91042813 593.38591743 3.69628906 593.38095093 C2.77545153 593.38318165 1.85461399 593.38541237 0.90587229 593.38771069 C-17.12853745 593.3339569 -35.82056155 589.43779416 -49.9228363 577.25396729 C-49.9228363 576.59396729 -49.9228363 575.93396729 -49.9228363 575.25396729 C-50.51451599 574.98584229 -51.10619568 574.71771729 -51.71580505 574.44146729 C-63.13481056 568.297436 -70.8796721 553.0581459 -74.55271912 541.22467041 C-77.23903436 531.71924724 -79.07942708 522.34243729 -79.05426407 512.42512608 C-79.0563167 511.66376292 -79.05836934 510.90239977 -79.06048417 510.11796501 C-79.06613286 507.56998535 -79.06469956 505.02206011 -79.0632782 502.47407532 C-79.06586307 500.62740102 -79.06887657 498.78072728 -79.0722816 496.93405432 C-79.08034074 491.86145014 -79.08214057 486.78886012 -79.08287907 481.7162503 C-79.08473154 476.24430136 -79.09227992 470.77235974 -79.09901428 465.30041504 C-79.11259101 453.33526181 -79.11862146 441.37011194 -79.12302494 429.40495229 C-79.12578881 421.93100809 -79.13002646 414.45706519 -79.13452911 406.98312187 C-79.14672155 386.28243246 -79.15705586 365.581744 -79.16040421 344.88105106 C-79.16062584 343.54298378 -79.16084762 342.20491649 -79.16106956 340.86684921 C-79.1612902 339.52560921 -79.16151068 338.18436922 -79.161731 336.84312922 C-79.16217355 334.1525199 -79.16262067 331.46191059 -79.16307068 328.77130127 C-79.16318007 328.10418925 -79.16328946 327.43707723 -79.16340217 326.74974969 C-79.16703073 305.1310396 -79.18294365 283.51236309 -79.20626104 261.89366585 C-79.23088752 239.01927306 -79.24457167 216.1448948 -79.24577212 193.27048773 C-79.24668792 180.8085267 -79.25241606 168.34660962 -79.27059174 155.88466072 C-79.28601757 145.27081122 -79.29109858 134.65701927 -79.28285363 124.04316068 C-79.27895577 118.63159944 -79.27983444 113.22015398 -79.29391098 107.8086071 C-79.3067018 102.84576427 -79.30540711 97.88312362 -79.29332027 92.92028087 C-79.2913722 91.13353967 -79.29440009 89.34678389 -79.30316463 87.56006313 C-79.41496073 63.21011152 -74.51334655 41.73491099 -57.18455505 23.52349854 C-56.06500427 22.40008057 -56.06500427 22.40008057 -54.9228363 21.25396729 C-54.24865662 20.55658447 -53.57447693 19.85920166 -52.87986755 19.14068604 C-38.6837753 5.42401153 -19.32895294 -0.09058633 0 0 Z M-32.9228363 45.25396729 C-33.48357849 45.6935376 -34.04432068 46.13310791 -34.62205505 46.58599854 C-40.91683106 52.05468845 -44.65922919 61.13413532 -45.9228363 69.25396729 C-46.01681641 71.82490332 -46.06240521 74.36828369 -46.05705738 76.938797 C-46.05940961 77.70888149 -46.06176184 78.47896598 -46.06418535 79.27238637 C-46.0708612 81.86204534 -46.07041755 84.45165396 -46.07000732 87.0413208 C-46.07330683 88.91315601 -46.07703258 90.78499052 -46.0811488 92.65682411 C-46.09116707 97.80814654 -46.09488532 102.95945732 -46.09753811 108.11078811 C-46.10144168 113.66383468 -46.11101999 119.21687203 -46.11975098 124.76991272 C-46.139514 138.18439571 -46.14958144 151.59887946 -46.15847877 165.01337337 C-46.16286197 171.33057136 -46.1682287 177.6477685 -46.17346764 183.96496582 C-46.19047983 204.96496396 -46.20499881 225.96496194 -46.21221638 246.96496582 C-46.21269113 248.32286199 -46.21316702 249.68075816 -46.21364404 251.03865433 C-46.21388042 251.71203832 -46.21411679 252.38542232 -46.21436033 253.07921189 C-46.21556151 256.49081656 -46.21677696 259.90242122 -46.21800232 263.31402588 C-46.21824247 263.99106501 -46.21848262 264.66810413 -46.21873005 265.36565959 C-46.22662042 287.30972641 -46.25004699 309.25373913 -46.28255826 331.19778232 C-46.31688045 354.40657984 -46.33656862 377.61534703 -46.33986062 400.82417393 C-46.34202553 413.47220299 -46.35077155 426.12015256 -46.37632179 438.76815796 C-46.39803151 449.53988857 -46.40607782 460.31152036 -46.39635501 471.08327037 C-46.39181114 476.57751584 -46.39370188 482.07155743 -46.41311646 487.56577492 C-46.43075431 492.60075587 -46.42974515 497.6353843 -46.41421916 502.67036903 C-46.41184406 504.48672847 -46.41616152 506.30311237 -46.42804781 508.11943448 C-46.52305923 523.60364641 -44.72302284 536.2471665 -33.9228363 548.25396729 C-31.42487526 550.61649671 -28.86120744 552.47677064 -25.9228363 554.25396729 C-25.19709412 554.71545166 -24.47135193 555.17693604 -23.72361755 555.65240479 C-10.24699236 563.35969787 7.37210262 561.54733442 22.35792542 561.52862549 C24.67735456 561.53298053 26.99678227 561.5381663 29.31620789 561.54411316 C35.57660839 561.55742842 41.83694825 561.55809025 48.09736013 561.55554986 C54.00603565 561.55433876 59.91470121 561.56057304 65.82337369 561.56598332 C78.2413037 561.57682445 90.65920645 561.57471254 103.07713796 561.56859847 C114.40055497 561.56343108 125.72388591 561.57468619 137.0472859 561.59369669 C148.71748903 561.61313693 160.38765157 561.62132038 172.05787098 561.61757344 C178.59247862 561.61576767 185.12700738 561.61832602 191.66160202 561.63228798 C197.8095227 561.64493408 203.95727199 561.64285841 210.10519028 561.62987709 C212.34919291 561.62752657 214.59320787 561.63019064 216.83719635 561.63850021 C244.07595101 561.96116502 244.07595101 561.96116502 267.3115387 549.21881104 C276.17881233 540.03484906 281.40911529 528.14317763 281.3344326 515.36989403 C281.33969171 514.21890344 281.33969171 514.21890344 281.34505707 513.04466051 C281.35435252 510.47636633 281.34945255 507.90829983 281.34458923 505.33999634 C281.34832644 503.47880832 281.35292824 501.61762186 281.35831988 499.7564379 C281.37055682 494.64382196 281.37028858 489.53127143 281.36793113 484.41864419 C281.36752313 478.90380103 281.37856054 473.38897889 281.38804626 467.87414551 C281.40466158 457.06958423 281.41015607 446.26504478 281.41127102 435.46047179 C281.41222134 426.67689813 281.41633085 417.89333167 281.42267227 409.10976028 C281.43742053 388.25722759 281.44972182 367.40469879 281.44867516 346.55216026 C281.448644 345.88539738 281.44861284 345.21863449 281.44858074 344.53166667 C281.44841453 341.15234569 281.44821645 337.77302472 281.44801132 334.39370374 C281.44797143 333.72257696 281.44793154 333.05145017 281.44789044 332.35998621 C281.44780957 331.00280357 281.44772597 329.64562093 281.44763966 328.28843829 C281.44641461 307.18072899 281.46141939 286.07308398 281.48878479 264.96539307 C281.51952875 241.24203201 281.53669052 217.51870694 281.53485835 193.79532111 C281.53419455 181.23787047 281.53968223 168.68049233 281.56121445 156.12305832 C281.57943219 145.43005576 281.58376871 134.73715855 281.5701956 124.04414718 C281.56366872 118.59039664 281.56353878 113.13684819 281.5809021 107.68311691 C281.59665018 102.68521688 281.59375126 97.68767888 281.57633384 92.68978758 C281.57326776 90.88694945 281.57688143 89.08408418 281.58805399 87.28127806 C281.66132043 74.61457365 280.79376799 62.88191284 273.5146637 52.00396729 C272.6464801 50.66592041 272.6464801 50.66592041 271.76075745 49.30084229 C270.16141373 46.98660661 270.16141373 46.98660661 267.0771637 46.25396729 C266.7471637 45.26396729 266.4171637 44.27396729 266.0771637 43.25396729 C263.60112793 41.19716723 263.60112793 41.19716723 260.4521637 39.25396729 C259.42864807 38.57334229 258.40513245 37.89271729 257.3506012 37.19146729 C244.45961616 30.55152179 228.5157095 31.82477088 214.48927307 31.86578369 C212.1370418 31.86171145 209.78481245 31.85636593 207.43258667 31.84985352 C201.08344842 31.83625181 194.73445746 31.84144897 188.38531685 31.85099077 C182.39534773 31.85784894 176.40539165 31.85259499 170.41542286 31.84820919 C157.82919325 31.83968154 145.2430295 31.849448 132.6568107 31.86561029 C121.88820402 31.87901108 111.11969441 31.87668225 100.35108948 31.862854 C87.8058362 31.84675156 75.26064045 31.84050527 62.71537828 31.84969079 C56.08918423 31.8544119 49.46304406 31.8550395 42.83685303 31.84508133 C36.60521021 31.83636905 30.37374939 31.84251112 24.14212608 31.8597641 C21.86503589 31.86370625 19.5879302 31.86263422 17.31084633 31.8559761 C-2.03238651 31.80466305 -17.47094776 32.41915536 -32.9228363 45.25396729 Z " fill="#0B6DAE" transform="translate(90.92283630371094,4.74603271484375)"/>
<path d="M0 0 C8.94352904 5.97875531 16.02333875 14.52831428 19.3359375 24.8671875 C21.93870727 38.96417659 21.02483813 52.49925302 13.390625 64.8125 C6.34548954 74.63299186 -3.864863 81.33937552 -15.6796875 83.95703125 C-29.35177905 85.79358086 -41.7073146 83.31699173 -53.03515625 75.2734375 C-54.2265625 73.1484375 -54.2265625 73.1484375 -55.03515625 71.2734375 C-56.96846228 70.18177475 -56.96846228 70.18177475 -59.03515625 69.2734375 C-62.30584891 66.64959492 -63.86235078 63.02677119 -65.66015625 59.3359375 C-65.97210938 58.71525391 -66.2840625 58.09457031 -66.60546875 57.45507812 C-71.47681007 47.5969111 -71.7293841 35.19640304 -69.12890625 24.5703125 C-64.14354755 12.10691574 -54.75845681 1.72560728 -42.484375 -3.89453125 C-27.65115111 -9.37044559 -13.71064053 -7.79936051 0 0 Z M-35.28515625 30.7734375 C-38.14330752 34.85651074 -38.45441344 37.24235116 -38.03515625 42.2734375 C-35.60004967 47.04999272 -32.81171147 49.83833092 -28.03515625 52.2734375 C-23.62601999 52.99493252 -20.9206615 52.51915041 -17.22265625 50.1484375 C-13.98482192 47.550894 -12.69232376 45.4628804 -12.03515625 41.2734375 C-12.06436614 36.32722893 -12.8175075 32.18058241 -16.03515625 28.2734375 C-22.48768222 24.50946402 -30.29500306 25.22882284 -35.28515625 30.7734375 Z " fill="#0469AC" transform="translate(233.03515625,466.7265625)"/>
<path d="M0 0 C0.72578751 -0.00524185 1.45157501 -0.0104837 2.19935608 -0.0158844 C3.72460662 -0.022268 5.24990663 -0.0210154 6.77514648 -0.01245117 C9.08863316 -0.00393945 11.39964696 -0.03275139 13.71289062 -0.06445312 C29.31155274 -0.13964364 29.31155274 -0.13964364 35.69482422 5.88110352 C38.07968816 8.52039168 39.8358623 10.8663603 40.16015625 14.43359375 C40.31484375 16.04234375 40.31484375 16.04234375 40.47265625 17.68359375 C40.09511205 22.2141241 39.19347295 25.96388007 36.16015625 29.43359375 C30.6364582 33.02705412 25.81413737 34.03339378 19.3125 33.96484375 C18.49697159 33.96867065 17.68144318 33.97249756 16.84120178 33.97644043 C15.12939203 33.97914444 13.41753988 33.9718899 11.70581055 33.95507812 C9.10045582 33.93361681 6.49784919 33.95494372 3.89257812 33.98046875 C2.22004606 33.97782574 0.54751569 33.97270132 -1.125 33.96484375 C-1.89497818 33.97294067 -2.66495636 33.9810376 -3.45826721 33.98937988 C-10.11583135 33.87508459 -14.38411756 31.80932886 -19.23828125 27.11328125 C-22.31962491 21.95766723 -21.71134981 16.21480571 -20.83984375 10.43359375 C-18.4625494 5.35139206 -14.90251467 3.21935015 -9.81333923 1.08351135 C-6.5844774 0.02017264 -3.36193534 -0.01446106 0 0 Z " fill="#076CAE" transform="translate(198.83984375,44.56640625)"/>
<path d="M0 0 C2.33277831 2.33277831 2.95149004 4.15775935 4.0625 7.25 C4.40410156 8.18328125 4.74570312 9.1165625 5.09765625 10.078125 C9.27239838 23.5963376 8.14700219 39.20523713 8.12698364 53.24130249 C8.1281386 55.02832179 8.12972862 56.81534084 8.13171089 58.60235941 C8.13585286 63.46834676 8.13383692 68.33431427 8.13072467 73.20030165 C8.12844969 78.46558225 8.1319606 83.73085959 8.13470459 88.99613953 C8.13913907 99.29380587 8.1381961 109.59146491 8.13529195 119.88913153 C8.13302854 128.26340544 8.13272946 136.63767732 8.13381577 145.01195145 C8.133969 146.20631801 8.13412223 147.40068458 8.13428011 148.63124407 C8.13459985 151.05801736 8.13492407 153.48479066 8.1352527 155.91156395 C8.13810076 178.6404253 8.13483117 201.36928261 8.12945233 224.09814329 C8.12498606 243.57324339 8.12576008 263.04833752 8.13037109 282.5234375 C8.13573075 305.17091362 8.13782492 327.8183862 8.13475883 350.46586287 C8.1344403 352.88404759 8.13412593 355.3022323 8.13381577 357.72041702 C8.13366149 358.91002415 8.13350721 360.09963127 8.13334826 361.3252871 C8.1324872 369.68221512 8.13393716 378.0391409 8.13629532 386.39606857 C8.13910902 396.59095056 8.13832208 406.78582485 8.13301457 416.98070596 C8.13039853 422.17583498 8.12933671 427.37095119 8.13266373 432.56608009 C8.13567024 437.33308194 8.1339623 442.10005928 8.12868617 446.86705895 C8.12758039 448.58021373 8.12811164 450.29337063 8.13056196 452.00652401 C8.14193304 460.62621031 8.01255023 469.21524639 7.55065727 477.82392311 C7.51138863 478.56680736 7.47211998 479.30969161 7.43166137 480.07508751 C7.01389859 487.11014706 5.9214927 493.53098045 3 500 C2.67 500 2.34 500 2 500 C2 497.36 2 494.72 2 492 C2.66 492 3.32 492 4 492 C4 489.69 4 487.38 4 485 C4.66 485 5.32 485 6 485 C5.67 331.88 5.34 178.76 5 21 C4.34 20.67 3.68 20.34 3 20 C2.375 16.9375 2.375 16.9375 2 14 C1.01 14.495 1.01 14.495 0 15 C0 10.05 0 5.1 0 0 Z " fill="#B7CEDC" transform="translate(396,49)"/>
<path d="M0 0 C2.49473217 -0.00243098 4.98946337 -0.00615326 7.48419189 -0.01106262 C13.53110607 -0.01946206 19.57785952 -0.01399546 25.62475509 -0.00179968 C32.67991932 0.01189398 39.73505565 0.01017602 46.79022979 0.00806699 C59.38540558 0.00488451 71.98052463 0.01650247 84.57568359 0.03613281 C96.77296679 0.0551378 108.97018352 0.06221836 121.16748047 0.05664062 C134.47921261 0.0505712 147.7909156 0.05078088 161.10264534 0.06212646 C162.52431643 0.06333363 163.94598752 0.06453962 165.36765862 0.0657444 C166.06698335 0.06634794 166.76630808 0.06695148 167.48682447 0.06757331 C172.39456098 0.07143851 177.30228659 0.07106429 182.21002388 0.06915855 C188.82489507 0.0668044 195.43969352 0.07542812 202.05455017 0.09121895 C204.47641588 0.09544666 206.89829022 0.09632258 209.320158 0.09352875 C212.63687537 0.09028417 215.95334308 0.09944582 219.27003479 0.11161804 C220.21840495 0.10783872 221.16677511 0.10405939 222.14388376 0.10016555 C231.73168942 0.162012 240.98446825 1.56314036 249.99389648 4.87231445 C251.76313477 5.5065332 251.76313477 5.5065332 253.56811523 6.15356445 C256.30639648 7.37231445 256.30639648 7.37231445 257.30639648 9.37231445 C256.50202148 9.08227539 256.50202148 9.08227539 255.68139648 8.78637695 C249.35606119 6.68486753 243.17726704 5.71403764 236.57788086 5.01928711 C231.39762847 4.46354644 231.39762847 4.46354644 230.30639648 3.37231445 C228.93045021 3.2709014 227.5493549 3.23834886 226.16968441 3.23364925 C225.2724607 3.22817481 224.37523699 3.22270037 223.45082468 3.21706003 C222.45376381 3.21608192 221.45670294 3.21510382 220.4294281 3.21409607 C219.37910072 3.20915809 218.32877334 3.20422011 217.24661785 3.1991325 C213.698105 3.18367358 210.14961035 3.17537429 206.60107422 3.16699219 C204.06893756 3.15742025 201.53680252 3.14741059 199.00466919 3.13699341 C193.53822302 3.11549575 188.07177997 3.09706594 182.60531425 3.08138847 C174.70163752 3.05871601 166.79798782 3.0305696 158.89433397 3.0010692 C146.07247154 2.95336104 133.25059808 2.91010562 120.42871094 2.86962891 C107.97036887 2.83029036 95.51203661 2.78886809 83.05371094 2.74462891 C81.90261823 2.7405425 81.90261823 2.7405425 80.72827112 2.73637354 C76.87863532 2.72269433 73.02899967 2.708974 69.17936409 2.69523323 C37.22172845 2.58121782 5.26407247 2.4744197 -26.69360352 2.37231445 C-26.69360352 3.03231445 -26.69360352 3.69231445 -26.69360352 4.37231445 C-31.31360352 4.70231445 -35.93360352 5.03231445 -40.69360352 5.37231445 C-29.37516178 -2.17331337 -12.93826079 -0.0442235 0 0 Z " fill="#A1CBE0" transform="translate(104.693603515625,4.627685546875)"/>
<path d="M0 0 C0 0.66 0 1.32 0 2 C-12.5092847 7.21220196 -28.60754616 5.14189085 -41.86157227 5.12939453 C-44.27896145 5.13075109 -46.69635043 5.13253245 -49.11373901 5.13470459 C-54.97524393 5.13877757 -60.83673708 5.13820014 -66.69824166 5.13529195 C-71.46521513 5.13302552 -76.23218501 5.13273075 -80.99915886 5.13381577 C-82.02022745 5.13404561 -82.02022745 5.13404561 -83.06192369 5.13428011 C-84.44514124 5.13459986 -85.82835879 5.13492407 -87.21157634 5.1352527 C-100.15436465 5.13809807 -113.09714587 5.13483516 -126.03993302 5.12945233 C-137.12647908 5.12498414 -148.21301467 5.12576218 -159.29956055 5.13037109 C-172.20035233 5.13573178 -185.10113791 5.13782453 -198.00193065 5.13475883 C-199.37950607 5.13444031 -200.75708149 5.13412594 -202.13465691 5.13381577 C-202.81230446 5.13366149 -203.48995201 5.13350721 -204.18813433 5.13334826 C-208.94554427 5.13248767 -213.70295025 5.13393609 -218.46035957 5.13629532 C-224.8716385 5.13940509 -231.28290235 5.13716708 -237.69417953 5.13140106 C-240.04229004 5.13008264 -242.39040221 5.13045194 -244.73851204 5.13266373 C-247.95265505 5.13541138 -251.16673556 5.13195014 -254.38087463 5.12698364 C-255.76213094 5.13032973 -255.76213094 5.13032973 -257.17129141 5.13374341 C-274.39674467 5.08240081 -274.39674467 5.08240081 -282 2 C-278.98968256 1.06576355 -278.13349732 0.95550089 -275 2 C-273.5099741 2.08987987 -272.01622213 2.12375832 -270.52348804 2.12304783 C-269.60138186 2.12503888 -268.67927568 2.12702993 -267.72922689 2.12908131 C-266.71464601 2.12616847 -265.70006513 2.12325563 -264.65473938 2.12025452 C-263.57820183 2.12110894 -262.50166429 2.12196337 -261.39250439 2.12284368 C-257.76726817 2.12449732 -254.1420777 2.11897896 -250.5168457 2.11352539 C-247.92530315 2.11324347 -245.33376052 2.11340135 -242.74221802 2.1139679 C-237.15356785 2.1144927 -231.56492935 2.11135043 -225.97628212 2.10573006 C-217.89599881 2.09760919 -209.81572115 2.09499923 -201.7354342 2.09374207 C-188.6262726 2.09155247 -175.51711721 2.08489489 -162.40795898 2.07543945 C-149.67228222 2.06626295 -136.93660714 2.05918328 -124.20092773 2.05493164 C-123.02374023 2.05453756 -123.02374023 2.05453756 -121.82277117 2.05413551 C-117.88577234 2.05283049 -113.94877351 2.05156678 -110.01177466 2.05032361 C-77.34117858 2.03995387 -44.67059012 2.02233807 -12 2 C-12 1.67 -12 1.34 -12 1 C-7.915021 0.45533613 -4.1274515 0 0 0 Z " fill="#8DBECD" transform="translate(349,593)"/>
<path d="M0 0 C0 3 0 3 -1.4375 5.4375 C-9.41963829 13.41963829 -22.48819471 15.10172488 -33.30198079 15.13374341 C-34.25499269 15.13151268 -35.20800459 15.12928196 -36.18989563 15.12698364 C-37.21364373 15.12854363 -38.23739183 15.13010362 -39.2921626 15.13171089 C-42.72123829 15.13569822 -46.15026968 15.13253996 -49.5793457 15.12939453 C-52.03850327 15.1307496 -54.49766064 15.13253013 -56.95681763 15.13470459 C-62.94280373 15.13879317 -68.92877246 15.13819167 -74.91475789 15.13529195 C-79.78200646 15.13303199 -84.64925152 15.13272797 -89.51650047 15.13381577 C-90.55630681 15.13404561 -90.55630681 15.13404561 -91.61711934 15.13428011 C-93.02546555 15.13459984 -94.43381177 15.13492406 -95.84215798 15.1352527 C-109.0461965 15.1381037 -122.25022806 15.13482674 -135.45426544 15.12945233 C-146.77346885 15.1249876 -158.09266201 15.12575823 -169.41186523 15.13037109 C-182.56456314 15.13572866 -195.71725496 15.13782593 -208.86995381 15.13475883 C-210.27398662 15.13444029 -211.67801942 15.13412592 -213.08205223 15.13381577 C-213.77280757 15.13366149 -214.46356291 15.13350721 -215.17525024 15.13334826 C-220.03271646 15.13248644 -224.8901788 15.13393885 -229.74764442 15.13629532 C-236.29344495 15.13940108 -242.83922915 15.13717374 -249.38502884 15.13140106 C-251.78557618 15.13008047 -254.18612514 15.13045568 -256.58667183 15.13266373 C-259.86752089 15.13540286 -263.14830829 15.13196025 -266.42915344 15.12698364 C-267.37547317 15.12921436 -268.3217929 15.13144509 -269.29678899 15.13374341 C-274.94110013 15.11717831 -280.40021813 14.71769139 -286 14 C-286.33 13.01 -286.66 12.02 -287 11 C-285.46200414 11.2117828 -285.46200414 11.2117828 -283.89293766 11.42784405 C-271.03343309 13.08760696 -258.33031694 13.29091137 -245.37866211 13.2746582 C-243.05879046 13.27901567 -240.73892025 13.28420223 -238.41905212 13.29014587 C-232.17122549 13.30343257 -225.92345973 13.3041264 -219.67562175 13.30158257 C-214.43972946 13.30050629 -209.20384916 13.30541268 -203.96795946 13.310188 C-190.90491167 13.32187647 -177.84189827 13.32107853 -164.7788483 13.31463119 C-153.47502157 13.30946024 -142.17128097 13.32073033 -130.86747127 13.33972941 C-119.21073206 13.35916897 -107.55403716 13.36706297 -95.89728171 13.36360615 C-89.3727791 13.36180082 -82.84835548 13.36435473 -76.32386589 13.37832069 C-70.18821697 13.39096575 -64.05273979 13.38889212 -57.91709328 13.37590981 C-55.67792577 13.37355937 -53.43874591 13.37622305 -51.19959259 13.38453293 C-24.18964702 13.87868456 -24.18964702 13.87868456 -1.2109375 1.28125 C-0.61152344 0.64703125 -0.61152344 0.64703125 0 0 Z " fill="#AFDDF5" transform="translate(359,552)"/>
<path d="M0 0 C0.7286174 -0.0066568 1.4572348 -0.0133136 2.20793152 -0.02017212 C3.74512217 -0.03026432 5.28235633 -0.0349902 6.81958008 -0.03466797 C9.15065187 -0.03903009 11.47981092 -0.07535107 13.81054688 -0.11328125 C29.51331202 -0.23344337 29.51331202 -0.23344337 35.88964844 5.78369141 C39.61608246 9.90558903 40.26550609 12.59665935 40.54296875 17.9609375 C40.35546875 21.3359375 40.35546875 21.3359375 38.35546875 23.3359375 C36.77274274 21.75321149 37.00811128 19.95559747 36.79296875 17.7734375 C36.70917969 16.94714844 36.62539062 16.12085938 36.5390625 15.26953125 C36.47847656 14.63144531 36.41789062 13.99335937 36.35546875 13.3359375 C35.36546875 13.3359375 34.37546875 13.3359375 33.35546875 13.3359375 C32.69546875 13.3359375 32.03546875 13.3359375 31.35546875 13.3359375 C30.86046875 9.3759375 30.86046875 9.3759375 30.35546875 5.3359375 C10.06046875 4.8409375 10.06046875 4.8409375 -10.64453125 4.3359375 C-10.64453125 4.9959375 -10.64453125 5.6559375 -10.64453125 6.3359375 C-11.42828125 6.7690625 -12.21203125 7.2021875 -13.01953125 7.6484375 C-16.0613934 9.60392031 -16.63435026 10.93805599 -17.64453125 14.3359375 C-18.30453125 14.3359375 -18.96453125 14.3359375 -19.64453125 14.3359375 C-19.36612948 9.74230828 -17.25605332 7.26434922 -14.41015625 3.88671875 C-10.16762774 0.16042711 -5.41658826 0.01740086 0 0 Z " fill="#78AACA" transform="translate(198.64453125,44.6640625)"/>
<path d="M0 0 C0.97759277 0.32524658 1.95518555 0.65049316 2.96240234 0.9855957 C7.21015255 2.19344605 11.20953928 2.27212988 15.6015625 2.23046875 C16.40105316 2.23001053 17.20054382 2.22955231 18.02426147 2.2290802 C19.70336402 2.22607642 21.38246426 2.21824683 23.06152344 2.20581055 C25.62444983 2.18750393 28.18701487 2.18530157 30.75 2.18554688 C32.38802394 2.18063242 34.02604545 2.17480442 35.6640625 2.16796875 C36.42562653 2.16685593 37.18719055 2.1657431 37.97183228 2.16459656 C41.76843879 2.1308519 45.30839321 1.91311024 49 1 C48.1875 2.9375 48.1875 2.9375 47 5 C43.16299489 6.2790017 39.53402849 6.16242817 35.53515625 6.16796875 C34.70543808 6.17129715 33.87571991 6.17462555 33.02085876 6.17805481 C31.26659703 6.18311561 29.51232567 6.1854634 27.75805664 6.18530273 C25.07617316 6.18748885 22.39470131 6.2056523 19.71289062 6.22460938 C18.00781391 6.22754355 16.30273523 6.22952818 14.59765625 6.23046875 C13.79650894 6.23765427 12.99536163 6.24483978 12.16993713 6.25224304 C5.0626728 6.22311901 5.0626728 6.22311901 2 4 C0.75 1.875 0.75 1.875 0 0 Z " fill="#5492B8" transform="translate(183,72)"/>
<path d="M0 0 C0.33 0 0.66 0 1 0 C1.04640141 13.53484867 1.08190891 27.06967832 1.10362434 40.60459042 C1.11404821 46.88982395 1.128182 53.17500293 1.15087891 59.46020508 C1.17265694 65.52914018 1.18457913 71.59802292 1.18975449 77.66699409 C1.19344132 79.97895697 1.20064076 82.29091709 1.21146011 84.60285759 C1.22604081 87.8485006 1.22797517 91.09392896 1.22705078 94.33959961 C1.23424133 95.28906967 1.24143188 96.23853973 1.24884033 97.21678162 C1.22532695 104.87852517 0.17572675 111.96803363 -3 119 C-3.33 119 -3.66 119 -4 119 C-4 116.36 -4 113.72 -4 111 C-3.34 111 -2.68 111 -2 111 C-2 108.69 -2 106.38 -2 104 C-1.34 104 -0.68 104 0 104 C0 69.68 0 35.36 0 0 Z " fill="#4F85A6" transform="translate(402,430)"/>
<path d="M0 0 C2.33277831 2.33277831 2.95149004 4.15775935 4.0625 7.25 C4.40410156 8.18328125 4.74570312 9.1165625 5.09765625 10.078125 C6.81958295 15.65388763 7.14299662 21.03943976 7.11352539 26.84130859 C7.11367142 27.60296326 7.11381744 28.36461792 7.1139679 29.14935303 C7.11327518 31.64907754 7.10551299 34.14872612 7.09765625 36.6484375 C7.09578979 38.38864094 7.09436696 40.12884491 7.09336853 41.86904907 C7.08956131 46.43598903 7.07974642 51.00289689 7.06866455 55.56982422 C7.05841177 60.23534715 7.05386264 64.90087529 7.04882812 69.56640625 C7.03812247 78.71095156 7.0210677 87.8554731 7 97 C6.67 97 6.34 97 6 97 C5.67 71.92 5.34 46.84 5 21 C4.34 20.67 3.68 20.34 3 20 C2.375 16.9375 2.375 16.9375 2 14 C1.01 14.495 1.01 14.495 0 15 C0 10.05 0 5.1 0 0 Z " fill="#5086A8" transform="translate(396,49)"/>
<path d="M0 0 C10.48418045 -0.06979817 20.96830475 -0.12296179 31.45267105 -0.15543652 C36.32204704 -0.17103011 41.19126297 -0.19215191 46.06054688 -0.22631836 C50.76789656 -0.25913834 55.47509317 -0.27690033 60.18254852 -0.28463173 C61.9701147 -0.29013489 63.7576734 -0.30088013 65.54517365 -0.31719017 C79.12130489 -0.4360336 90.65194241 0.85715317 103 7 C102.34 7.33 101.68 7.66 101 8 C99.96875 7.566875 98.9375 7.13375 97.875 6.6875 C92.8543387 4.64756526 87.71846057 4.20326212 82.37255859 3.6472168 C77.08815697 3.08815697 77.08815697 3.08815697 76 2 C73.62798453 1.87513046 71.28359657 1.81399948 68.90991211 1.79467773 C67.79778603 1.77982834 67.79778603 1.77982834 66.66319275 1.76467896 C64.20127607 1.73297534 61.73934007 1.70827174 59.27734375 1.68359375 C57.57482895 1.66303186 55.87231935 1.6420356 54.16981506 1.62062073 C49.68012691 1.56532101 45.19039208 1.51594672 40.70062256 1.46777344 C36.12263822 1.41761594 31.54472197 1.36189992 26.96679688 1.30664062 C17.9779227 1.19896249 8.9889895 1.09753912 0 1 C0 0.67 0 0.34 0 0 Z " fill="#4989B3" transform="translate(259,6)"/>
<path d="M0 0 C7.55601341 1.00746845 13.45424635 6.12508998 18.38671875 11.6953125 C22.26993094 16.84900261 25.32517173 21.74730781 27 28 C26.67 28.99 26.34 29.98 26 31 C23.69857565 29.21825212 22.19965609 27.83695835 21.51171875 24.953125 C21.27676898 22.9753389 21.13248542 20.98728128 21 19 C20.34 19 19.68 19 19 19 C17.30859375 17.35546875 17.30859375 17.35546875 15.4375 15.1875 C14.81746094 14.47980469 14.19742188 13.77210938 13.55859375 13.04296875 C12 11 12 11 11 8 C9.3364521 7.32558869 7.66933058 6.6599679 6 6 C3.8125 4 3.8125 4 2 2 C1.34 1.34 0.68 0.68 0 0 Z " fill="#72A9C6" transform="translate(225,464)"/>
<path d="M0 0 C-3.70052863 1.1185477 -7.34005175 1.28036993 -11.1875 1.5 C-16.81765327 1.83850673 -22.40134253 2.31244557 -28 3 C-28.33 3.99 -28.66 4.98 -29 6 C-35.625 7 -35.625 7 -39 7 C-29.70965215 -0.6011937 -11.35533869 -7.24192519 0 0 Z " fill="#6CA3C1" transform="translate(220,462)"/>
<path d="M0 0 C0.66 0.33 1.32 0.66 2 1 C1.13375 1.7734375 1.13375 1.7734375 0.25 2.5625 C-2.01811834 5.0196282 -3.47403639 7.35518849 -5.05859375 10.26953125 C-5.86387595 11.74978027 -6.73803132 13.19220444 -7.625 14.625 C-9.0813444 16.99858173 -9.0813444 16.99858173 -10.0625 19.75 C-11 22 -11 22 -13 23 C-14.29402908 26.88208725 -14.19077166 30.57877436 -14.1875 34.625 C-14.18814453 35.43372559 -14.18878906 36.24245117 -14.18945312 37.07568359 C-14.14007527 42.64752602 -13.59013711 47.63328727 -12 53 C-14 52 -14 52 -15.09765625 49.04296875 C-17.87068247 38.34077809 -17.42979872 25.36963925 -12.4921875 15.48046875 C-8.9706857 9.6266634 -4.96869241 4.67641639 0 0 Z " fill="#9AC3D8" transform="translate(179,470)"/>
<path d="M0 0 C0.99 0.66 1.98 1.32 3 2 C2.26394531 1.97679687 1.52789062 1.95359375 0.76953125 1.9296875 C-0.69419922 1.90261719 -0.69419922 1.90261719 -2.1875 1.875 C-3.63189453 1.84019531 -3.63189453 1.84019531 -5.10546875 1.8046875 C-8.18570636 2.01253079 -10.25605867 2.60453669 -13 4 C-15.75928305 7.20673436 -16.89986676 9.29906735 -17.5 13.5 C-16.76336494 18.65644545 -14.74803784 21.66597112 -10.625 24.8125 C-7.73657267 26.11916951 -5.1394847 26.63494364 -2 27 C-2 27.33 -2 27.66 -2 28 C-8.24778417 28.54328558 -13.59523749 27.27998946 -19 24 C-20.125 21.5 -20.125 21.5 -20 18 C-20.01902189 15.87498301 -20.04000018 13.74998301 -20.0625 11.625 C-20.04653244 9.74995225 -20.02730462 7.87491693 -20 6 C-19.01 6.33 -18.02 6.66 -17 7 C-16.773125 6.401875 -16.54625 5.80375 -16.3125 5.1875 C-12.68660387 -0.85566022 -6.38670992 -0.83351977 0 0 Z " fill="#8FBED8" transform="translate(213,492)"/>
<path d="M0 0 C4.87626457 1.39321845 7.07577973 3.93858296 10 8 C11.47166285 11.50934988 11.2088804 15.24015288 11 19 C10.34 19.66 9.68 20.32 9 21 C7.41727399 19.41727399 7.65264253 17.61965997 7.4375 15.4375 C7.35371094 14.61121094 7.26992187 13.78492188 7.18359375 12.93359375 C7.12300781 12.29550781 7.06242188 11.65742187 7 11 C6.01 11 5.02 11 4 11 C3.34 11 2.68 11 2 11 C1.77213542 9.01432292 1.54427083 7.02864583 1.31640625 5.04296875 C1.02829265 2.80603607 1.02829265 2.80603607 0 0 Z " fill="#3B86B4" transform="translate(228,47)"/>
<path d="M0 0 C0.66 0.33 1.32 0.66 2 1 C-6.77658951 8.63181697 -18.30578845 10.4262006 -29.515625 10.2578125 C-36.22373145 9.76147279 -41.74017915 8.24831684 -47 4 C-42.07872966 3.83317728 -38.49656104 3.75171948 -34 6 C-34 6.66 -34 7.32 -34 8 C-26.31604457 8.2137731 -19.43659188 8.01670288 -12 6 C-12 5.34 -12 4.68 -12 4 C-11.21753906 3.79503906 -10.43507812 3.59007812 -9.62890625 3.37890625 C-8.61699219 3.10949219 -7.60507813 2.84007812 -6.5625 2.5625 C-5.55316406 2.29566406 -4.54382813 2.02882813 -3.50390625 1.75390625 C-1.08247999 1.24021923 -1.08247999 1.24021923 0 0 Z " fill="#9EC7DE" transform="translate(234,541)"/>
<path d="M0 0 C0 3 0 3 -1.4375 5.4375 C-8.2806091 12.2806091 -19.74686826 14.7753279 -29.15966797 15.11352539 C-30.25939941 15.10828857 -31.35913086 15.10305176 -32.4921875 15.09765625 C-33.69101562 15.09443359 -34.88984375 15.09121094 -36.125 15.08789062 C-37.98125 15.07532227 -37.98125 15.07532227 -39.875 15.0625 C-41.13570313 15.05798828 -42.39640625 15.05347656 -43.6953125 15.04882812 C-46.79692386 15.0370796 -49.89843725 15.02065167 -53 15 C-53 14.67 -53 14.34 -53 14 C-52.13387085 13.97812622 -52.13387085 13.97812622 -51.25024414 13.95581055 C-24.19884848 13.8847605 -24.19884848 13.8847605 -1.2109375 1.28125 C-0.81132812 0.8584375 -0.41171875 0.435625 0 0 Z " fill="#BAE1F7" transform="translate(359,552)"/>
<path d="M0 0 C0 0.33 0 0.66 0 1 C-6.93 2.485 -6.93 2.485 -14 4 C-14 4.66 -14 5.32 -14 6 C-15.65770921 7.33619621 -17.37852016 8.59462139 -19.125 9.8125 C-23.24328031 12.72983663 -27.18448497 15.70009511 -31 19 C-30.35492261 17.65608877 -29.6802367 16.32646156 -29 15 C-28.401875 13.824375 -27.80375 12.64875 -27.1875 11.4375 C-25.31754589 8.18601263 -23.50465362 6.52766953 -20 5 C-19.01 5 -18.02 5 -17 5 C-17 4.34 -17 3.68 -17 3 C-11.17521449 -0.03901852 -6.51791392 -0.3540919 0 0 Z " fill="#73A8C6" transform="translate(84,36)"/>
<path d="M0 0 C0 0.66 0 1.32 0 2 C-5.99315606 4.66055622 -11.97710181 4.25294052 -18.3984375 4.1953125 C-19.58853424 4.1924826 -20.77863098 4.18965271 -22.00479126 4.18673706 C-25.79496437 4.17556817 -29.58489866 4.15046917 -33.375 4.125 C-35.94921533 4.11496597 -38.52343438 4.10584085 -41.09765625 4.09765625 C-47.39851858 4.07563957 -53.69924222 4.0421945 -60 4 C-60 3.67 -60 3.34 -60 3 C-44.16 2.67 -28.32 2.34 -12 2 C-12 1.67 -12 1.34 -12 1 C-7.915021 0.45533613 -4.1274515 0 0 0 Z " fill="#357092" transform="translate(349,593)"/>
<path d="M0 0 C0.66 0 1.32 0 2 0 C5.1764685 6.22058414 5.59115108 11.2707914 4.73046875 18.15625 C4 20 4 20 2.22265625 21.08203125 C1.50980469 21.32308594 0.79695312 21.56414063 0.0625 21.8125 C-0.64777344 22.06644531 -1.35804688 22.32039062 -2.08984375 22.58203125 C-4 23 -4 23 -6 22 C-5.05125 21.46375 -4.1025 20.9275 -3.125 20.375 C0.49352178 17.62492345 1.23407681 16.425334 2 12 C1.84259595 7.92323502 1.1426126 3.91752892 0 0 Z " fill="#8ABBD4" transform="translate(218,496)"/>
<path d="M0 0 C13.84559096 -0.44292767 25.39000054 0.7268437 38 7 C37.34 7.33 36.68 7.66 36 8 C34.96875 7.566875 33.9375 7.13375 32.875 6.6875 C27.8543387 4.64756526 22.71846057 4.20326212 17.37255859 3.6472168 C12.08815697 3.08815697 12.08815697 3.08815697 11 2 C9.15108054 1.76636119 7.29511969 1.58696365 5.4375 1.4375 C4.42558594 1.35371094 3.41367187 1.26992187 2.37109375 1.18359375 C1.19740234 1.09271484 1.19740234 1.09271484 0 1 C0 0.67 0 0.34 0 0 Z " fill="#7BAFCC" transform="translate(324,6)"/>
<path d="M0 0 C5.62395001 5.62395001 7.02239353 15.71466367 7.0625 23.375 C7.041875 24.57125 7.02125 25.7675 7 27 C6.67 27 6.34 27 6 27 C5.34 24.69 4.68 22.38 4 20 C3.67 20 3.34 20 3 20 C2.67 18.02 2.34 16.04 2 14 C1.01 14.495 1.01 14.495 0 15 C0 10.05 0 5.1 0 0 Z " fill="#69A3C7" transform="translate(396,49)"/>
<path d="M0 0 C0.33 0 0.66 0 1 0 C1.68792287 12.87944475 1.68792287 12.87944475 -0.75 16.8125 C-3 19 -3 19 -7 19 C-6.72414063 18.32582031 -6.44828125 17.65164063 -6.1640625 16.95703125 C-4.82618085 13.5584527 -3.59731761 10.12928907 -2.375 6.6875 C-2.14554687 6.04232422 -1.91609375 5.39714844 -1.6796875 4.73242188 C-1.1189182 3.15525821 -0.55933709 1.57767216 0 0 Z " fill="#3B85B4" transform="translate(371,528)"/>
<path d="M0 0 C0.66 0 1.32 0 2 0 C2 0.99 2 1.98 2 3 C2.66 3 3.32 3 4 3 C4 3.66 4 4.32 4 5 C4.99 5.33 5.98 5.66 7 6 C9 9 9 9 9 12 C10.32 12.66 11.64 13.32 13 14 C12.67 15.65 12.34 17.3 12 19 C9.8799164 16.42561277 7.94092381 13.90425582 6.1875 11.0625 C3.56219562 7.38707387 0.52030222 4.788554 -3 2 C-2.01 1.67 -1.02 1.34 0 1 C0 0.67 0 0.34 0 0 Z " fill="#65A0C3" transform="translate(356,44)"/>
<path d="M0 0 C0.52722656 0.23074219 1.05445312 0.46148437 1.59765625 0.69921875 C0.83453125 0.96734375 0.07140625 1.23546875 -0.71484375 1.51171875 C-3.39460621 2.69579984 -4.41946233 3.63702207 -6.40234375 5.69921875 C-15.22683355 11.89513712 -15.22683355 11.89513712 -18.65234375 11.32421875 C-19.22984375 11.11796875 -19.80734375 10.91171875 -20.40234375 10.69921875 C-16.7507533 7.62096213 -13.02259101 5.18892611 -8.83984375 2.88671875 C-7.72480469 2.26152344 -6.60976563 1.63632813 -5.4609375 0.9921875 C-2.40234375 -0.30078125 -2.40234375 -0.30078125 0 0 Z " fill="#82B3CF" transform="translate(62.40234375,10.30078125)"/>
<path d="M0 0 C1.485 0.99 1.485 0.99 3 2 C2.67 2.99 2.34 3.98 2 5 C2.99 5.33 3.98 5.66 5 6 C4.67 6.99 4.34 7.98 4 9 C4.99 9.33 5.98 9.66 7 10 C6.67 10.99 6.34 11.98 6 13 C6.639375 13.185625 7.27875 13.37125 7.9375 13.5625 C10 15 10 15 10.75 18.625 C10.87375 20.295625 10.87375 20.295625 11 22 C7.11989708 18.64353929 5.30967865 15.02094798 3.25 10.4375 C2.93417969 9.76525391 2.61835938 9.09300781 2.29296875 8.40039062 C0.93288467 5.43587836 0 3.29819115 0 0 Z " fill="#6AA3C3" transform="translate(17,545)"/>
<path d="M0 0 C2 3 2 3 3.375 5.8125 C4.95522824 9.08236839 4.95522824 9.08236839 7.1875 12.1875 C9 15 9 15 9 18 C6.525 17.01 6.525 17.01 4 16 C4 14.35 4 12.7 4 11 C3.34 11 2.68 11 2 11 C-1.07692308 5.70769231 -1.07692308 5.70769231 -0.6875 2.125 C-0.460625 1.42375 -0.23375 0.7225 0 0 Z " fill="#7EB1D1" transform="translate(46,534)"/>
<path d="M0 0 C-4.625 4.875 -4.625 4.875 -8 6 C-8.639375 5.835 -9.27875 5.67 -9.9375 5.5 C-12.31772734 4.92297519 -13.69706679 5.25977147 -16 6 C-15 3 -15 3 -13.14453125 2.05078125 C-8.62924723 0.62131948 -4.80015245 -0.3692425 0 0 Z " fill="#0965A0" transform="translate(74,9)"/>
<path d="M0 0 C0.66 0 1.32 0 2 0 C1.125 6.875 1.125 6.875 0 8 C-0.07325168 10.86267567 -0.09238205 13.700719 -0.0625 16.5625 C-0.05798828 17.36880859 -0.05347656 18.17511719 -0.04882812 19.00585938 C-0.03700518 21.00393756 -0.01906914 23.00197783 0 25 C-2.02752537 21.95871195 -2.25479962 21.33136438 -2.265625 17.91015625 C-2.26820313 17.12576172 -2.27078125 16.34136719 -2.2734375 15.53320312 C-2.26570312 14.71787109 -2.25796875 13.90253906 -2.25 13.0625 C-2.25773438 12.25103516 -2.26546875 11.43957031 -2.2734375 10.60351562 C-2.27085937 9.81783203 -2.26828125 9.03214844 -2.265625 8.22265625 C-2.26336914 7.50859619 -2.26111328 6.79453613 -2.25878906 6.05883789 C-1.9619308 3.69713441 -1.16635976 2.05908249 0 0 Z " fill="#2571A3" transform="translate(166,492)"/>
<path d="M0 0 C4.47921409 0.54045362 7.19643165 2.23192996 10.8125 4.875 C12.27623047 5.92300781 12.27623047 5.92300781 13.76953125 6.9921875 C14.50558594 7.65476562 15.24164063 8.31734375 16 9 C16 9.99 16 10.98 16 12 C13.525 11.01 13.525 11.01 11 10 C11 9.34 11 8.68 11 8 C10.2575 7.7525 9.515 7.505 8.75 7.25 C5.76999648 5.89545294 4.18165848 4.40734728 2 2 C1.34 1.34 0.68 0.68 0 0 Z " fill="#8AB7D1" transform="translate(225,464)"/>
<path d="M0 0 C3.83663072 1.34929464 6.65172569 3.07751025 9.8125 5.625 C10.99779297 6.57246094 10.99779297 6.57246094 12.20703125 7.5390625 C12.79871094 8.02117188 13.39039063 8.50328125 14 9 C13.01 9 12.02 9 11 9 C10.67 8.67 10.34 8.34 10 8 C8.88625 7.896875 7.7725 7.79375 6.625 7.6875 C3 7 3 7 1.0625 5.125 C0 3 0 3 0 0 Z " fill="#5594BC" transform="translate(364,15)"/>
<path d="M0 0 C0 3 0 3 -1.4375 5.4375 C-5.86255776 9.86255776 -11.79943556 12.19992717 -18 13 C-18 12.34 -18 11.68 -18 11 C-16.5459375 10.443125 -16.5459375 10.443125 -15.0625 9.875 C-9.5711711 7.53278012 -4.22864373 4.22864373 0 0 Z " fill="#7FB2CE" transform="translate(359,552)"/>
<path d="M0 0 C0.33 0 0.66 0 1 0 C1.29890597 8.88414981 0.69675022 16.81433879 -3 25 C-3.33 25 -3.66 25 -4 25 C-4 22.36 -4 19.72 -4 17 C-3.34 17 -2.68 17 -2 17 C-2 14.69 -2 12.38 -2 10 C-1.34 10 -0.68 10 0 10 C0 6.7 0 3.4 0 0 Z " fill="#80B1CE" transform="translate(402,524)"/>
<path d="M0 0 C5.32732146 3.9320706 8.5475182 8.38053494 12 14 C11.67 14.66 11.34 15.32 11 16 C10.34 15.67 9.68 15.34 9 15 C9 14.34 9 13.68 9 13 C8.34 13 7.68 13 7 13 C5.59431196 11.05017465 4.2704964 9.04049422 3 7 C2.4225 6.0925 1.845 5.185 1.25 4.25 C0 2 0 2 0 0 Z " fill="#7EB1CD" transform="translate(382,29)"/>
<path d="M0 0 C-1.93108963 1.03290841 -3.870118 2.05098672 -5.8125 3.0625 C-6.89144531 3.63097656 -7.97039062 4.19945312 -9.08203125 4.78515625 C-12 6 -12 6 -15 5 C-13.68 4.34 -12.36 3.68 -11 3 C-11 2.01 -11 1.02 -11 0 C-6.97959015 -0.69584017 -3.91736581 -1.1700097 0 0 Z " fill="#639FC0" transform="translate(365,588)"/>
<path d="M0 0 C3.375 0.625 3.375 0.625 7 2 C8.3125 4.9375 8.3125 4.9375 9 8 C9.99 9.485 9.99 9.485 11 11 C7.84164893 9.60249952 5.67727175 7.94801766 3.25 5.5 C2.63640625 4.8915625 2.0228125 4.283125 1.390625 3.65625 C0 2 0 2 0 0 Z " fill="#61A2C1" transform="translate(30,569)"/>
<path d="M0 0 C1 3 1 3 -0.21484375 5.69921875 C-0.78332031 6.68535156 -1.35179687 7.67148437 -1.9375 8.6875 C-2.50339844 9.68136719 -3.06929688 10.67523437 -3.65234375 11.69921875 C-4.31943359 12.83810547 -4.31943359 12.83810547 -5 14 C-5.33 14 -5.66 14 -6 14 C-5.67 11.03 -5.34 8.06 -5 5 C-4.34 5 -3.68 5 -3 5 C-2.87625 4.360625 -2.7525 3.72125 -2.625 3.0625 C-2.41875 2.381875 -2.2125 1.70125 -2 1 C-1.34 0.67 -0.68 0.34 0 0 Z " fill="#4B8EB8" transform="translate(397,549)"/>
<path d="M0 0 C0.99 0 1.98 0 3 0 C3.66 1.98 4.32 3.96 5 6 C1.98968256 6.93423645 1.13349732 7.04449911 -2 6 C-2 6.66 -2 7.32 -2 8 C-2.66 7.67 -3.32 7.34 -4 7 C-1.125 1.125 -1.125 1.125 0 0 Z " fill="#3683B3" transform="translate(363,547)"/>
<path d="M0 0 C0 0.33 0 0.66 0 1 C-3.3 1 -6.6 1 -10 1 C-10 1.66 -10 2.32 -10 3 C-14.62 3.33 -19.24 3.66 -24 4 C-16.6660942 -0.88927054 -8.49543198 -0.23310637 0 0 Z " fill="#7DB2CF" transform="translate(88,6)"/>
<path d="M0 0 C11.28845091 -0.3945478 11.28845091 -0.3945478 15 2 C15.8125 4.125 15.8125 4.125 16 6 C15.34 5.67 14.68 5.34 14 5 C14 4.34 14 3.68 14 3 C9.05 3 4.1 3 -1 3 C-0.67 2.01 -0.34 1.02 0 0 Z " fill="#367BA9" transform="translate(202,490)"/>
<path d="M0 0 C3.63 0 7.26 0 11 0 C11.33 0.99 11.66 1.98 12 3 C12.66 3 13.32 3 14 3 C14 3.66 14 4.32 14 5 C14.99 5.33 15.98 5.66 17 6 C16.01 6.495 16.01 6.495 15 7 C13.33216294 6.03265451 11.66668313 5.06075563 10.01953125 4.05859375 C6.80292511 2.37251974 3.54261487 1.74581366 0 1 C0 0.67 0 0.34 0 0 Z " fill="#88BBD5" transform="translate(336,38)"/>
<path d="M0 0 C-1.0625 1.9375 -1.0625 1.9375 -3 4 C-6.4163394 4.73207273 -9.5124487 5 -13 5 C-11.92250558 4.17977251 -10.83770492 3.36913831 -9.75 2.5625 C-9.14671875 2.11003906 -8.5434375 1.65757812 -7.921875 1.19140625 C-5.08031035 -0.57013281 -3.08460387 -1.54230193 0 0 Z " fill="#78AECB" transform="translate(194,464)"/>
<path d="M0 0 C0 0.66 0 1.32 0 2 C-4.50353262 3.75747614 -8.17639811 4.19294408 -13 4 C-12.67 3.01 -12.34 2.02 -12 1 C-7.915021 0.45533613 -4.1274515 0 0 0 Z " fill="#649EC1" transform="translate(349,593)"/>
<path d="M0 0 C4.92127034 -0.16682272 8.50343896 -0.24828052 13 2 C13 2.66 13 3.32 13 4 C7.73946963 4.31563182 4.55426184 3.66590937 0 1 C0 0.67 0 0.34 0 0 Z " fill="#5C9ABD" transform="translate(187,545)"/>
<path d="M0 0 C0.99 0.33 1.98 0.66 3 1 C2.4225 1.38671875 1.845 1.7734375 1.25 2.171875 C0.5075 2.69265625 -0.235 3.2134375 -1 3.75 C-1.7425 4.26046875 -2.485 4.7709375 -3.25 5.296875 C-3.8275 5.85890625 -4.405 6.4209375 -5 7 C-5 8.32 -5 9.64 -5 11 C-5 11.33 -5 11.66 -5 12 C-6.65 12 -8.3 12 -10 12 C-7.9009871 6.81420343 -4.86282294 2.84033067 0 0 Z " fill="#0F659A" transform="translate(184,468)"/>
<path d="M0 0 C0.99 0 1.98 0 3 0 C3 0.66 3 1.32 3 2 C4.32 2.33 5.64 2.66 7 3 C7.33 4.32 7.66 5.64 8 7 C7.01 7 6.02 7 5 7 C5 6.34 5 5.68 5 5 C2.03 4.505 2.03 4.505 -1 4 C-0.67 2.68 -0.34 1.36 0 0 Z " fill="#287DB0" transform="translate(388,42)"/>
<path d="M0 0 C3.93673644 1.31224548 6.22719294 2.91910327 9 6 C8.67 6.66 8.34 7.32 8 8 C7.34 7.34 6.68 6.68 6 6 C3.41645782 5.83312552 3.41645782 5.83312552 1 6 C0.67 4.02 0.34 2.04 0 0 Z " fill="#6EA8C7" transform="translate(228,47)"/>
<path d="M0 0 C0.625 1.8125 0.625 1.8125 1 4 C0.01 5.485 0.01 5.485 -1 7 C-1.66 7 -2.32 7 -3 7 C-3.33 8.32 -3.66 9.64 -4 11 C-4.66 11 -5.32 11 -6 11 C-4.74194623 6.49197399 -3.09592835 3.5087188 0 0 Z " fill="#7BADCA" transform="translate(28,35)"/>
<path d="M0 0 C0.66 0.33 1.32 0.66 2 1 C1.34 2.32 0.68 3.64 0 5 C-0.66 5 -1.32 5 -2 5 C-2.28875 5.78375 -2.5775 6.5675 -2.875 7.375 C-4 10 -4 10 -6 12 C-6 10.35 -6 8.7 -6 7 C-5.34 7 -4.68 7 -4 7 C-3.896875 6.401875 -3.79375 5.80375 -3.6875 5.1875 C-2.91123545 2.71756736 -1.92911079 1.67748765 0 0 Z " fill="#226E9F" transform="translate(53,51)"/>
<path d="M0 0 C0.59425781 0.21914063 1.18851563 0.43828125 1.80078125 0.6640625 C1.14078125 0.6640625 0.48078125 0.6640625 -0.19921875 0.6640625 C-0.19921875 1.3240625 -0.19921875 1.9840625 -0.19921875 2.6640625 C-0.98296875 3.0971875 -1.76671875 3.5303125 -2.57421875 3.9765625 C-5.6160809 5.93204531 -6.18903776 7.26618099 -7.19921875 10.6640625 C-7.85921875 10.6640625 -8.51921875 10.6640625 -9.19921875 10.6640625 C-8.9281634 6.05612158 -6.91508398 3.88422004 -3.8671875 0.703125 C-2.19921875 -0.3359375 -2.19921875 -0.3359375 0 0 Z " fill="#226E9A" transform="translate(188.19921875,48.3359375)"/>
<path d="M0 0 C2.24107496 2.88138209 4.33168894 5.74679343 6 9 C5.67 9.99 5.34 10.98 5 12 C2.69857565 10.21825212 1.19965609 8.83695835 0.51171875 5.953125 C0.27676898 3.9753389 0.13248542 1.98728128 0 0 Z " fill="#4D8BB0" transform="translate(246,483)"/>
<path d="M0 0 C0.66 0.33 1.32 0.66 2 1 C1.01 6.61 0.02 12.22 -1 18 C-1.33 18 -1.66 18 -2 18 C-2.10452045 12.22814851 -2.08808374 6.6822151 -1 1 C-0.67 0.67 -0.34 0.34 0 0 Z " fill="#1C6B9E" transform="translate(45,62)"/>
<path d="M0 0 C0.99 0.33 1.98 0.66 3 1 C-0.3 3.64 -3.6 6.28 -7 9 C-7 6 -7 6 -5.1875 3.9375 C-3 2 -3 2 0 0 Z " fill="#1D6895" transform="translate(64,41)"/>
<path d="M0 0 C-3.12621626 3.39417765 -5.56541027 5.6062718 -10 7 C-9.505 6.38125 -9.01 5.7625 -8.5 5.125 C-6.80777227 3.16119096 -6.80777227 3.16119096 -7 1 C-4.53721199 -0.231394 -2.7204945 -0.07159196 0 0 Z " fill="#7EB1CD" transform="translate(376,580)"/>
<path d="M0 0 C3.38060901 3.11371882 5.70920036 5.54087397 7 10 C7 10.99 7 11.98 7 13 C3.70759125 10.20145256 1.96437054 6.79326725 0 3 C0 2.01 0 1.02 0 0 Z " fill="#93C1D8" transform="translate(167,523)"/>
<path d="M0 0 C0.66 0 1.32 0 2 0 C3.32 3.3 4.64 6.6 6 10 C2 8 2 8 0.75 5.5625 C0 3 0 3 0 0 Z " fill="#679EBB" transform="translate(179,65)"/>
<path d="M0 0 C0.99 0.33 1.98 0.66 3 1 C3 2.32 3 3.64 3 5 C3.66 5.33 4.32 5.66 5 6 C4.67 8.31 4.34 10.62 4 13 C3.67 13 3.34 13 3 13 C2.49487756 11.39743892 1.99608373 9.79288208 1.5 8.1875 C1.2215625 7.29417969 0.943125 6.40085937 0.65625 5.48046875 C0 3 0 3 0 0 Z " fill="#8FBFD9" transform="translate(368,63)"/>
<path d="M0 0 C0.7734375 0.433125 0.7734375 0.433125 1.5625 0.875 C4.62356725 2.28780027 7.74944918 3.1248517 11 4 C11 4.66 11 5.32 11 6 C8.3125 6.375 8.3125 6.375 5 6 C2.93601924 4.176017 1.60958947 2.27236161 0 0 Z " fill="#0E649C" transform="translate(37,575)"/>
<path d="M0 0 C1.15957207 3.47871621 0.77456651 4.34219645 -0.4375 7.6875 C-0.72496094 8.49574219 -1.01242187 9.30398438 -1.30859375 10.13671875 C-1.53675781 10.75160156 -1.76492188 11.36648438 -2 12 C-2.99 12 -3.98 12 -5 12 C-3.41037341 7.96479403 -1.71767682 3.98188718 0 0 Z " fill="#9FC7DD" transform="translate(369,535)"/>
<path d="M0 0 C2.64 0.66 5.28 1.32 8 2 C8.33 3.32 8.66 4.64 9 6 C5.06326356 4.68775452 2.77280706 3.08089673 0 0 Z " fill="#73A9C6" transform="translate(178,539)"/>
<path d="M0 0 C2.45823172 3.68734758 3.01242616 6.69699971 4 11 C3.34 11 2.68 11 2 11 C-1.07692308 5.70769231 -1.07692308 5.70769231 -0.6875 2.125 C-0.460625 1.42375 -0.23375 0.7225 0 0 Z " fill="#649DBD" transform="translate(46,534)"/>
<path d="M0 0 C0 0.99 0 1.98 0 3 C-2.5 5.1875 -2.5 5.1875 -5 7 C-5.33 6.01 -5.66 5.02 -6 4 C-5.01 4 -4.02 4 -3 4 C-3 3.34 -3 2.68 -3 2 C-3.66 1.67 -4.32 1.34 -5 1 C-3.35 0.67 -1.7 0.34 0 0 Z " fill="#5E9EBD" transform="translate(386,568)"/>
<path d="M0 0 C3.63 1.32 7.26 2.64 11 4 C11 4.33 11 4.66 11 5 C4.64948454 5.36637589 4.64948454 5.36637589 1.5625 3.625 C0 2 0 2 0 0 Z " fill="#4083AF" transform="translate(61,558)"/>
<path d="M0 0 C-1 2 -1 2 -2.84765625 2.6328125 C-3.57855469 2.79523437 -4.30945312 2.95765625 -5.0625 3.125 C-5.79597656 3.29257813 -6.52945313 3.46015625 -7.28515625 3.6328125 C-7.85105469 3.75398437 -8.41695312 3.87515625 -9 4 C-8 1 -8 1 -5.625 -0.25 C-3 -1 -3 -1 0 0 Z " fill="#1A6C9F" transform="translate(67,11)"/>
<path d="M0 0 C1.9375 0.375 1.9375 0.375 4 1 C4.33 1.66 4.66 2.32 5 3 C2.36 3.33 -0.28 3.66 -3 4 C-2.01 2.68 -1.02 1.36 0 0 Z " fill="#639EC2" transform="translate(45,18)"/>
<path d="M0 0 C3.37503669 1.1858237 5.64722731 2.27573689 8 5 C5.69 4.67 3.38 4.34 1 4 C0.67 2.68 0.34 1.36 0 0 Z " fill="#82B1CD" transform="translate(364,15)"/>
<path d="M0 0 C1 3 1 3 -0.4375 6.1875 C-1.2109375 7.5796875 -1.2109375 7.5796875 -2 9 C-2.33 9 -2.66 9 -3 9 C-3.36923077 3.46153846 -3.36923077 3.46153846 -1.5 1.125 C-1.005 0.75375 -0.51 0.3825 0 0 Z " fill="#6DA1C2" transform="translate(397,549)"/>
<path d="M0 0 C0 0.99 0 1.98 0 3 C-2.5 4.6875 -2.5 4.6875 -5 6 C-5 4.35 -5 2.7 -5 1 C-3.35 0.67 -1.7 0.34 0 0 Z " fill="#6EA3C5" transform="translate(241,535)"/>
<path d="M0 0 C2.64 0 5.28 0 8 0 C8 0.99 8 1.98 8 3 C2.25 2.25 2.25 2.25 0 0 Z " fill="#84B2D1" transform="translate(58,591)"/>
<path d="M0 0 C0.66 0 1.32 0 2 0 C2 1.65 2 3.3 2 5 C0.68 5 -0.64 5 -2 5 C-1.34 3.35 -0.68 1.7 0 0 Z " fill="#0A67A3" transform="translate(396,544)"/>
<path d="M0 0 C-1.65 1.98 -3.3 3.96 -5 6 C-5.5534764 3.92446352 -6 2.15634036 -6 0 C-2.25 -1.125 -2.25 -1.125 0 0 Z " fill="#12659A" transform="translate(201,493)"/>
<path d="M0 0 C1.9375 0.375 1.9375 0.375 4 1 C4.33 1.66 4.66 2.32 5 3 C4.0625 5.125 4.0625 5.125 3 7 C0 2.25 0 2.25 0 0 Z " fill="#73A6C6" transform="translate(364,56)"/>
</svg>
